<svg xmlns="http://www.w3.org/2000/svg" xmlns:xlink="http://www.w3.org/1999/xlink" width="100" height="100" viewBox="0 0 100 100">
  <defs>
    <style>
      .cls-1 {
        fill: none;
      }

      .cls-2 {
        opacity: 0.05;
        fill: url(#linear-gradient);
      }

      .cls-3, .cls-6 {
        fill: #fff;
      }

      .cls-4 {
        fill: #2d2d2d;
      }

      .cls-5 {
        fill: #474747;
      }

      .cls-6 {
        stroke: #2d2d2d;
        stroke-linecap: round;
        stroke-miterlimit: 10;
        stroke-width: 0.705px;
      }

      .cls-7 {
        mix-blend-mode: multiply;
        isolation: isolate;
      }

      .cls-8 {
        fill: #ff8e93;
        opacity: 0.5;
      }
    </style>
    <linearGradient id="linear-gradient" x1="0.5" x2="0.5" y2="1" gradientUnits="objectBoundingBox">
      <stop offset="0" stop-color="#1778f2"/>
      <stop offset="1" stop-color="#f40009"/>
    </linearGradient>
  </defs>
  <g id="Group_124978" data-name="Group 124978" transform="translate(-216 -672)">
    <rect id="Rectangle_10352" data-name="Rectangle 10352" class="cls-1" width="100" height="100" transform="translate(216 672)"/>
    <g id="Group_124903" data-name="Group 124903">
      <path id="Path_153244" data-name="Path 153244" class="cls-2" d="M32.3,83.491A105.79,105.79,0,0,1,17.2,70.917,105.57,105.57,0,0,1,4.909,56.1,17.251,17.251,0,0,1,0,44.2,16.783,16.783,0,0,1,4.909,32.3,144.539,144.539,0,0,1,32.3,4.909,17.263,17.263,0,0,1,44.2,0,16.781,16.781,0,0,1,56.1,4.909a164.255,164.255,0,0,1,13.841,12.23A164.608,164.608,0,0,1,83.491,32.3,17.24,17.24,0,0,1,88.4,44.2a16.782,16.782,0,0,1-4.909,11.9A163.679,163.679,0,0,1,69.255,71.955,164.629,164.629,0,0,1,56.1,83.491a17.386,17.386,0,0,1-7.239,4.259,16.564,16.564,0,0,1-4.664.65,17.462,17.462,0,0,1-5.792-1.133A18.7,18.7,0,0,1,32.3,83.491Z" transform="translate(221.375 676)"/>
      <g id="Group_75789" data-name="Group 75789" transform="translate(-447.524 636.896)">
        <g id="Group_3852" data-name="Group 3852" transform="translate(696.313 68.523)">
          <path id="Path_273" data-name="Path 273" class="cls-3" d="M700.678,69.384c-.229.012-2.594.163-3.252,1.577-.691,1.487.559,4.256,3.772,5.584a17.347,17.347,0,0,1-.52-7.161Z" transform="translate(-696.896 -69.016)"/>
          <path id="Path_274" data-name="Path 274" class="cls-4" d="M701.721,77.132l-.662-.274a6.88,6.88,0,0,1-3.894-3.646,3.077,3.077,0,0,1-.058-2.4c.719-1.547,3.08-1.752,3.546-1.777l.418-.023-.056.415a16.979,16.979,0,0,0,.508,7.019Zm-1.446-7.372c-.9.12-2.149.493-2.542,1.34a2.446,2.446,0,0,0,.075,1.861,6.011,6.011,0,0,0,2.859,2.95,17.678,17.678,0,0,1-.391-6.151Z" transform="translate(-696.889 -69.009)"/>
        </g>
        <g id="Group_3853" data-name="Group 3853" transform="translate(720.879 68.389)">
          <path id="Path_275" data-name="Path 275" class="cls-3" d="M723,69.246c.229.012,2.595.163,3.253,1.577.69,1.487-.559,4.256-3.772,5.584A17.323,17.323,0,0,0,723,69.246Z" transform="translate(-721.949 -68.88)"/>
          <path id="Path_276" data-name="Path 276" class="cls-4" d="M721.939,76.993l.2-.689a17.018,17.018,0,0,0,.508-7.018l-.056-.413.416.021c.285.015,2.81.186,3.548,1.777a3.08,3.08,0,0,1-.058,2.4A6.886,6.886,0,0,1,722.6,76.72Zm1.447-7.367A17.663,17.663,0,0,1,723,75.773a6,6,0,0,0,2.858-2.95,2.442,2.442,0,0,0,.076-1.861C725.492,70.025,724.094,69.72,723.386,69.626Z" transform="translate(-721.939 -68.873)"/>
        </g>
        <g id="Group_3854" data-name="Group 3854" transform="translate(702.78 82.035)">
          <path id="Path_277" data-name="Path 277" class="cls-3" d="M706.13,83.18a12,12,0,0,1,.4,7.29,11.681,11.681,0,0,1-2.634,4.815A8.084,8.084,0,0,0,718.666,96.4a15.842,15.842,0,0,1-1.853-12.419Z" transform="translate(-703.492 -82.795)"/>
          <path id="Path_278" data-name="Path 278" class="cls-4" d="M711.525,101.04h-.132a8.659,8.659,0,0,1-7.832-5.639l-.077-.2.143-.156a11.374,11.374,0,0,0,2.556-4.673,11.671,11.671,0,0,0-.383-7.078l-.194-.508,11.641.875-.106.4a15.708,15.708,0,0,0-.258,6.8,15.435,15.435,0,0,0,2.07,5.346l.106.172-.1.178A8.54,8.54,0,0,1,711.525,101.04Zm-7.242-5.691a7.959,7.959,0,0,0,7.122,5h.121a7.839,7.839,0,0,0,6.732-3.948,16.108,16.108,0,0,1-2.055-5.408,16.422,16.422,0,0,1,.169-6.7l-9.747-.733a12.336,12.336,0,0,1,.228,7A12.081,12.081,0,0,1,704.282,95.349Z" transform="translate(-703.484 -82.787)"/>
        </g>
        <g id="Group_3855" data-name="Group 3855" transform="translate(699.307 54.747)">
          <ellipse id="Ellipse_3593" data-name="Ellipse 3593" class="cls-3" cx="11.405" cy="15.674" rx="11.405" ry="15.674" transform="translate(0.346 0.345)"/>
          <path id="Path_279" data-name="Path 279" class="cls-4" d="M711.694,87c-6.48,0-11.752-7.187-11.752-16.02s5.271-16.02,11.752-16.02,11.751,7.187,11.751,16.02S718.173,87,711.694,87Zm0-31.348c-6.1,0-11.06,6.877-11.06,15.328s4.961,15.328,11.06,15.328,11.059-6.877,11.059-15.328S717.793,55.653,711.694,55.653Z" transform="translate(-699.942 -54.962)"/>
        </g>
        <g id="Group_3858" data-name="Group 3858" transform="translate(696.768 47.632)">
          <g id="Group_3856" data-name="Group 3856" transform="translate(0.346 0.346)">
            <path id="Path_280" data-name="Path 280" class="cls-5" d="M716.137,48.71a14.95,14.95,0,0,0-10.019.473c-1.067.451-5.878,2.474-7.69,7.561-1.987,5.577.608,11.827,1.98,11.814,1.225-.011.693-5.011,4.052-6.955,2.275-1.316,3.508.392,7.6-.8,3.165-.927,3.988-2.406,5.821-1.9,1.7.466,2.657,2.2,3.382,3.52,1.873,3.407,1.273,6.109,1.894,6.211.969.159,4.718-6.049,2.767-11.881C723.982,50.939,717.6,49.127,716.137,48.71Z" transform="translate(-697.706 -48.061)"/>
          </g>
          <g id="Group_3857" data-name="Group 3857">
            <path id="Path_281" data-name="Path 281" class="cls-4" d="M723.19,68.967a.587.587,0,0,1-.093-.008c-.5-.081-.571-.649-.68-1.51a12.634,12.634,0,0,0-1.462-4.874c-.717-1.3-1.607-2.924-3.171-3.354-.936-.256-1.561.072-2.595.617a15.366,15.366,0,0,1-3.039,1.286,10.857,10.857,0,0,1-4.648.367,4.117,4.117,0,0,0-2.874.405c-1.905,1.1-2.488,3.287-2.912,4.883C701.39,68,701.154,68.89,700.4,68.9H700.4c-.4,0-.819-.3-1.237-.883-1.377-1.933-2.667-6.889-1.065-11.392a13.476,13.476,0,0,1,7.873-7.76,15.116,15.116,0,0,1,10.257-.49h0c6.627,1.883,9.107,5.529,10.019,8.257a13.452,13.452,0,0,1-2.032,11.659C723.824,68.743,723.489,68.967,723.19,68.967Zm-6.025-10.526a2.962,2.962,0,0,1,.8.114c1.847.506,2.856,2.345,3.593,3.686a13.424,13.424,0,0,1,1.544,5.122,6,6,0,0,0,.147.883,4.006,4.006,0,0,0,1.071-1.319,12.809,12.809,0,0,0,1.269-10.08c-.86-2.57-3.217-6.012-9.555-7.812h0a14.441,14.441,0,0,0-9.789.459,12.815,12.815,0,0,0-7.5,7.359,13.388,13.388,0,0,0,.978,10.759c.333.468.58.592.673.592h0c.224,0,.47-.928.649-1.6.432-1.617,1.082-4.059,3.233-5.3a4.762,4.762,0,0,1,3.292-.494,10.169,10.169,0,0,0,4.384-.342,14.614,14.614,0,0,0,2.91-1.235A4.939,4.939,0,0,1,717.164,58.441Z" transform="translate(-697.353 -47.707)"/>
          </g>
        </g>
        <g id="Group_3859" data-name="Group 3859" transform="translate(667.025 44.973)">
          <path id="Path_282" data-name="Path 282" class="cls-3" d="M696.483,94.979c-4.893-1.9-9.02-3.528-12.163-4.772-5.14-2.035-7.1-2.786-7.387-4.414-.3-1.7,1.736-3.81,5.8-8.025.408-.423,1.761-1.806,3.593-3.81.992-1.085.839-.942,1.155-1.272a15.971,15.971,0,0,1,5.54-4.281c1.839-.725,3-.515,3.957-1.739a3.872,3.872,0,0,0,.66-1.338c1.208-4.129-1.282-9.758-.265-12.573a18.962,18.962,0,0,1,.944-2.14c.429-.809.611-.988.823-1.424.676-1.39.712-3.461.079-3.792-.924-.484-3.894,2.42-5.6,5.83-2.3,4.6-.512,6.515-2.122,10.249-1.433,3.324-3.269,2.778-11.933,9.28a40,40,0,0,0-10.152,10.352c-1.361,2.1-2.293,4.064-1.979,6.286.13.924.544,2.379,3.034,5.083a30.837,30.837,0,0,0,7.434,5.906,75.91,75.91,0,0,0,14.829,6.377Q694.61,99.872,696.483,94.979Z" transform="translate(-667.031 -45.002)"/>
          <path id="Path_283" data-name="Path 283" class="cls-4" d="M692.934,105.185l-.31-.1a76.649,76.649,0,0,1-14.9-6.407,31.415,31.415,0,0,1-7.518-5.972c-2.49-2.7-2.976-4.236-3.122-5.269-.344-2.444.772-4.579,2.031-6.521a40.13,40.13,0,0,1,10.236-10.442,92.168,92.168,0,0,1,7.652-5.195c2.448-1.511,3.365-2.077,4.17-3.945a10.236,10.236,0,0,0,.763-4.258,12.327,12.327,0,0,1,1.367-6.011c1.4-2.783,3.8-5.532,5.26-6a1.042,1.042,0,0,1,.814.023c.876.459.783,2.783.071,4.248a5.862,5.862,0,0,1-.327.569c-.126.2-.28.448-.5.866a18.4,18.4,0,0,0-.924,2.1c-.448,1.241-.153,3.174.158,5.218.363,2.378.775,5.073.112,7.334a4.225,4.225,0,0,1-.718,1.453,3.956,3.956,0,0,1-2.488,1.354,12.516,12.516,0,0,0-1.615.493,15.821,15.821,0,0,0-5.417,4.2c-.143.148-.186.2-.288.313-.123.139-.327.37-.861.954-1.659,1.813-2.919,3.114-3.457,3.669l-.143.147c-3.855,4-5.978,6.2-5.712,7.726.246,1.409,2.2,2.182,6.915,4.048l.259.1c3.141,1.245,7.269,2.87,12.162,4.772l.321.125Zm6.048-59.5a.682.682,0,0,0-.2.039c-1.138.366-3.454,2.861-4.853,5.654a11.718,11.718,0,0,0-1.294,5.716,10.946,10.946,0,0,1-.82,4.516c-.891,2.068-1.93,2.71-4.441,4.259a91.329,91.329,0,0,0-7.6,5.161A39.482,39.482,0,0,0,669.7,81.294c-1.37,2.115-2.221,3.953-1.926,6.05.131.933.585,2.334,2.946,4.9a30.754,30.754,0,0,0,7.35,5.838,75.865,75.865,0,0,0,14.453,6.252l3.51-9.162c-4.753-1.849-8.77-3.43-11.845-4.648l-.259-.1c-5.114-2.024-7.028-2.781-7.341-4.572-.328-1.876,1.753-4.031,5.9-8.325l.143-.148c.535-.553,1.791-1.848,3.443-3.655.53-.579.731-.806.852-.943s.157-.177.309-.335a16.353,16.353,0,0,1,5.663-4.362,13.33,13.33,0,0,1,1.7-.521,3.282,3.282,0,0,0,2.113-1.109,3.5,3.5,0,0,0,.6-1.221c.619-2.114.22-4.729-.131-7.037-.326-2.135-.633-4.151-.125-5.558a19.14,19.14,0,0,1,.962-2.184c.233-.44.4-.7.529-.909a5.105,5.105,0,0,0,.29-.505c.666-1.37.578-3.152.229-3.333A.157.157,0,0,0,698.982,45.685Z" transform="translate(-667.025 -44.995)"/>
        </g>
        <g id="Group_3860" data-name="Group 3860" transform="translate(721.739 45.242)">
          <path id="Path_284" data-name="Path 284" class="cls-3" d="M726.128,95.252c2.635-1.067,6.812-2.763,12.031-4.905,4.557-1.872,6.841-2.84,7.123-4.414.337-1.888-1.666-3.978-5.672-8.159-.352-.368-1.608-1.661-3.329-3.542-.982-1.073-.827-.932-1.155-1.273a16.593,16.593,0,0,0-5.54-4.28c-2.173-.894-3.016-.345-3.825-1.338-.679-.832-.639-1.895-.4-4.012.755-6.561,1.7-7.2,1.055-9.229-.573-1.811-1.494-1.782-2.485-4.614-.2-.566-1.2-3.42-.548-3.812.752-.456,3.844,2.32,5.6,5.83,2.3,4.6.512,6.515,2.122,10.249,1.432,3.323,3.268,2.777,11.932,9.28A39.976,39.976,0,0,1,753.2,81.385c1.36,2.1,2.292,4.064,1.978,6.286-.146,1.04-.606,2.442-3.033,5.082a32.828,32.828,0,0,1-7.65,6.153,64.47,64.47,0,0,1-14.613,6.131Z" transform="translate(-722.823 -45.277)"/>
          <path id="Path_285" data-name="Path 285" class="cls-4" d="M729.66,105.451l-3.985-10.4.316-.127c2.634-1.065,6.811-2.761,12.029-4.9,4.5-1.846,6.671-2.795,6.914-4.155.307-1.713-1.661-3.767-5.581-7.858l-.153-.159c-.494-.514-1.652-1.718-3.182-3.389-.527-.576-.728-.8-.851-.942-.1-.118-.15-.171-.3-.325a16.346,16.346,0,0,0-5.421-4.2,8.739,8.739,0,0,0-2.14-.577,2.5,2.5,0,0,1-1.822-.862c-.759-.933-.723-2.07-.471-4.27a57.857,57.857,0,0,1,.945-5.806,5.616,5.616,0,0,0,.124-3.28,4.965,4.965,0,0,0-.917-1.666,9.485,9.485,0,0,1-1.565-2.938c-1.143-3.265-.815-3.971-.4-4.222a.857.857,0,0,1,.706-.048c1.308.378,3.889,3.031,5.385,6.02a12.323,12.323,0,0,1,1.367,6.01,10.234,10.234,0,0,0,.763,4.258c.805,1.867,1.722,2.433,4.17,3.943a92.292,92.292,0,0,1,7.653,5.2A40.155,40.155,0,0,1,753.48,81.19c1.258,1.944,2.375,4.079,2.03,6.523-.155,1.094-.646,2.575-3.121,5.268a33.293,33.293,0,0,1-7.732,6.218,65.111,65.111,0,0,1-14.693,6.165Zm-3.1-10.012,3.515,9.172A64.319,64.319,0,0,0,744.311,98.6a32.517,32.517,0,0,0,7.568-6.086c2.347-2.554,2.806-3.909,2.947-4.9.312-2.219-.741-4.22-1.927-6.05A39.54,39.54,0,0,0,742.829,71.3a91.174,91.174,0,0,0-7.6-5.16c-2.511-1.55-3.549-2.192-4.442-4.259a10.951,10.951,0,0,1-.82-4.517,11.72,11.72,0,0,0-1.295-5.715c-1.723-3.442-4.574-5.849-5.121-5.687h0c.008,0-.329.455.7,3.4a8.874,8.874,0,0,0,1.464,2.752,5.634,5.634,0,0,1,1.024,1.872,6.167,6.167,0,0,1-.107,3.63,57.442,57.442,0,0,0-.934,5.744c-.235,2.049-.277,3.024.32,3.755a1.861,1.861,0,0,0,1.4.616,9.382,9.382,0,0,1,2.293.62,16.892,16.892,0,0,1,5.658,4.36c.158.165.207.221.318.344.122.139.322.365.843.935,1.525,1.665,2.677,2.865,3.171,3.377l.154.16c4.082,4.261,6.13,6.4,5.762,8.459-.321,1.795-2.811,2.817-7.331,4.674C733.266,92.719,729.213,94.367,726.565,95.439Z" transform="translate(-722.816 -45.27)"/>
        </g>
        <g id="Group_3861" data-name="Group 3861" transform="translate(679.187 90.12)">
          <path id="Path_286" data-name="Path 286" class="cls-3" d="M726.345,131.556c-2.306-7.843-1.265-14.75,1.216-17.321a27.778,27.778,0,0,1,5.342-3.745c1.653-.716,1.969-.8,1.969-.8a13.491,13.491,0,0,0,2.5-.932s.269-.207.479-.4c2.5-2.308,1.941-15.187-3.067-16.824-2.1-.686-3.188,1.185-8.211,2.509a27.519,27.519,0,0,1-9.1.8,7.9,7.9,0,0,1-5.145,2.809,8.012,8.012,0,0,1-7.419-3.862,16.413,16.413,0,0,1-4.452.652c-2.221.013-3.7-.445-7.057-1.338-4.477-1.191-6.731-1.8-7.262-1.644-5.581,1.656-7.372,13.134-5.816,14.5a1.381,1.381,0,0,0,.181.139,6.16,6.16,0,0,0,2.951.905c1.85.064,6.162,1.179,8.495,3.75a9.2,9.2,0,0,1,1.583,2.675c2.1,4.9,1.647,9.66,1.109,13.809-.184,1.416-.409,2.6-.594,3.461" transform="translate(-679.433 -91.038)"/>
          <path id="Path_287" data-name="Path 287" class="cls-4" d="M726.338,131.895a.344.344,0,0,1-.331-.248c-2.414-8.208-1.173-15.1,1.3-17.659a27.938,27.938,0,0,1,5.455-3.821c1.627-.706,1.978-.811,2.012-.821.442-.16.824-.28,1.148-.381a4.929,4.929,0,0,0,1.253-.5h0s.243-.19.434-.367c1.346-1.242,1.755-6.124.858-10.246-.417-1.911-1.463-5.232-3.8-6-1.036-.337-1.787.024-3.156.677a25.509,25.509,0,0,1-4.859,1.838,27.9,27.9,0,0,1-9.041.825,7.916,7.916,0,0,1-12.863-1.009,16.623,16.623,0,0,1-4.3.6,22.736,22.736,0,0,1-6.269-1.114l-1.327-.355c-3.735-.992-6.209-1.656-6.627-1.526-3.021.9-4.921,4.954-5.692,8.454-.622,2.821-.482,5.031.006,5.46a1.07,1.07,0,0,0,.136.106,5.819,5.819,0,0,0,2.779.853c1.693.058,6.241,1.111,8.738,3.862a10.1,10.1,0,0,1,1.646,2.771c2.087,4.871,1.7,9.582,1.134,13.991-.152,1.174-.353,2.348-.6,3.49a.346.346,0,0,1-.677-.146c.242-1.123.44-2.278.589-3.432.558-4.313.935-8.918-1.084-13.63a9.853,9.853,0,0,0-1.521-2.578c-2.351-2.591-6.649-3.582-8.251-3.636a6.533,6.533,0,0,1-3.122-.959,1.641,1.641,0,0,1-.227-.172c-.912-.8-.77-3.656-.225-6.127.394-1.793,2.006-7.733,6.169-8.968.578-.173,2.141.229,7,1.522l1.328.354a21.505,21.505,0,0,0,6,1.091h.086a15.935,15.935,0,0,0,4.358-.638l.248-.072.138.218a7.649,7.649,0,0,0,7.1,3.705,7.549,7.549,0,0,0,4.912-2.687l.115-.136.177.014a27.13,27.13,0,0,0,8.987-.792,24.512,24.512,0,0,0,4.738-1.793c1.428-.682,2.373-1.133,3.669-.71,1.972.644,3.485,2.956,4.258,6.506.869,3.989.649,9.321-1.064,10.9-.22.2-.5.422-.5.422a5.43,5.43,0,0,1-1.448.6c-.317.1-.689.217-1.145.381-.034.011-.378.115-1.948.8a27.431,27.431,0,0,0-5.231,3.669c-2.276,2.359-3.448,9.113-1.134,16.983a.347.347,0,0,1-.234.43A.367.367,0,0,1,726.338,131.895Z" transform="translate(-679.426 -91.031)"/>
        </g>
        <g id="Group_3862" data-name="Group 3862" transform="translate(694.902 130.95)">
          <path id="Path_288" data-name="Path 288" class="cls-6" d="M695.451,132.665" transform="translate(-695.451 -132.665)"/>
        </g>
        <g id="Group_3863" data-name="Group 3863" transform="translate(695.106 125.411)">
          <path id="Path_289" data-name="Path 289" class="cls-6" d="M695.659,127.017" transform="translate(-695.659 -127.017)"/>
        </g>
        <g id="Group_3864" data-name="Group 3864" transform="translate(723.567 131.088)">
          <path id="Path_290" data-name="Path 290" class="cls-6" d="M724.68,132.8" transform="translate(-724.68 -132.805)"/>
        </g>
        <g id="Group_3865" data-name="Group 3865" transform="translate(682.912 43.821)">
          <path id="Path_291" data-name="Path 291" class="cls-3" d="M686.233,44.173c-2.076,1.4-2.52,2.359-2.408,3.023.2,1.152,2.068,1.432,2.063,2.441,0,1.073-2.121,1.381-2.178,2.559-.051,1.054,1.618,1.414,1.605,2.558-.013,1.089-1.532,1.38-1.72,2.558-.1.641.186,1.566,1.769,2.869" transform="translate(-683.231 -43.828)"/>
          <path id="Path_292" data-name="Path 292" class="cls-4" d="M685.357,60.519a.346.346,0,0,1-.219-.078c-1.428-1.176-2.046-2.219-1.891-3.19a2.557,2.557,0,0,1,1.02-1.5c.429-.376.691-.627.7-1.006,0-.422-.329-.719-.715-1.063a1.948,1.948,0,0,1-.89-1.507c.037-.773.7-1.216,1.288-1.607.458-.3.889-.592.89-.937,0-.3-.3-.533-.806-.88a2.462,2.462,0,0,1-1.253-1.5c-.169-.993.667-2.095,2.557-3.366a.345.345,0,1,1,.384.573c-1.594,1.073-2.374,2-2.259,2.678.073.433.505.732.964,1.049.519.358,1.107.765,1.1,1.451,0,.712-.638,1.135-1.2,1.507-.493.33-.96.64-.982,1.065-.015.332.239.584.659.959a2.119,2.119,0,0,1,.947,1.587,2.09,2.09,0,0,1-.93,1.518,1.967,1.967,0,0,0-.794,1.091c-.112.7.443,1.555,1.647,2.547a.346.346,0,0,1-.22.613Z" transform="translate(-683.224 -43.821)"/>
        </g>
        <g id="Group_3866" data-name="Group 3866" transform="translate(734.355 43.821)">
          <path id="Path_293" data-name="Path 293" class="cls-3" d="M736.032,44.173c2.077,1.4,2.52,2.359,2.408,3.023-.2,1.152-2.068,1.432-2.063,2.441,0,1.073,2.121,1.381,2.178,2.559.051,1.054-1.618,1.414-1.6,2.558.012,1.089,1.531,1.38,1.719,2.558.1.641-.186,1.566-1.768,2.869" transform="translate(-735.687 -43.828)"/>
          <path id="Path_294" data-name="Path 294" class="cls-4" d="M736.894,60.519a.346.346,0,0,1-.22-.613c1.2-.991,1.757-1.848,1.648-2.548a1.973,1.973,0,0,0-.794-1.09,2.088,2.088,0,0,1-.931-1.518,2.119,2.119,0,0,1,.947-1.587c.421-.375.675-.627.659-.959-.022-.425-.487-.736-.982-1.065-.559-.373-1.194-.8-1.2-1.507,0-.686.585-1.093,1.1-1.451.459-.318.891-.616.965-1.049.116-.68-.666-1.605-2.26-2.678a.345.345,0,1,1,.385-.573c1.889,1.271,2.724,2.372,2.556,3.366a2.46,2.46,0,0,1-1.252,1.5c-.5.347-.809.58-.807.88,0,.344.433.633.891.937.586.391,1.25.835,1.287,1.607A1.949,1.949,0,0,1,738,53.68c-.387.344-.721.641-.716,1.063,0,.38.268.631.7,1.006a2.552,2.552,0,0,1,1.02,1.5c.155.972-.463,2.015-1.89,3.19A.351.351,0,0,1,736.894,60.519Z" transform="translate(-735.68 -43.821)"/>
        </g>
        <g id="Group_3867" data-name="Group 3867" transform="translate(739.7 46.228)">
          <path id="Path_295" data-name="Path 295" class="cls-3" d="M741.483,46.628c1.452.978,1.762,1.65,1.684,2.114-.137.805-1.447,1-1.444,1.706,0,.75,1.484.965,1.524,1.789.035.737-1.132.989-1.123,1.788.009.762,1.071.965,1.2,1.789.072.448-.13,1.1-1.237,2.006" transform="translate(-741.137 -46.282)"/>
          <path id="Path_296" data-name="Path 296" class="cls-4" d="M742.084,58.159a.346.346,0,0,1-.22-.613c.8-.658,1.186-1.241,1.115-1.684a1.284,1.284,0,0,0-.522-.7,1.539,1.539,0,0,1-.686-1.138,1.585,1.585,0,0,1,.7-1.19c.27-.24.433-.4.426-.587-.013-.244-.318-.447-.64-.663-.413-.275-.881-.586-.884-1.14,0-.535.433-.836.817-1.1.3-.209.587-.406.632-.665s-.1-.805-1.537-1.77a.346.346,0,1,1,.387-.573c1.356.914,1.955,1.718,1.831,2.458a1.828,1.828,0,0,1-.921,1.119c-.267.184-.519.359-.518.529,0,.185.293.381.576.569.409.273.918.613.946,1.205a1.461,1.461,0,0,1-.655,1.136c-.291.26-.469.435-.466.666s.173.382.45.627a1.88,1.88,0,0,1,.747,1.11c.116.72-.329,1.481-1.358,2.327A.341.341,0,0,1,742.084,58.159Z" transform="translate(-741.131 -46.275)"/>
        </g>
        <g id="Group_3868" data-name="Group 3868" transform="translate(678.463 46.228)">
          <path id="Path_297" data-name="Path 297" class="cls-3" d="M680.9,46.628c-1.451.978-1.762,1.65-1.683,2.114.136.805,1.446,1,1.443,1.706,0,.75-1.484.965-1.523,1.789-.035.737,1.132.989,1.122,1.788-.009.762-1.071.965-1.2,1.789-.072.448.13,1.1,1.237,2.006" transform="translate(-678.695 -46.283)"/>
          <path id="Path_298" data-name="Path 298" class="cls-4" d="M680.284,58.159a.342.342,0,0,1-.219-.079c-1.03-.845-1.474-1.606-1.359-2.327a1.889,1.889,0,0,1,.747-1.11c.278-.244.448-.405.451-.627s-.175-.405-.466-.666a1.458,1.458,0,0,1-.656-1.136c.028-.592.537-.933.946-1.205.283-.188.575-.383.576-.569,0-.169-.251-.343-.518-.529a1.826,1.826,0,0,1-.92-1.119c-.126-.739.474-1.544,1.831-2.458a.345.345,0,1,1,.386.573c-1.434.965-1.578,1.523-1.536,1.769s.33.457.631.666c.384.266.82.566.818,1.1,0,.553-.471.865-.885,1.14-.323.216-.628.419-.639.663-.009.19.155.347.426.587a1.591,1.591,0,0,1,.7,1.19,1.542,1.542,0,0,1-.685,1.138,1.28,1.28,0,0,0-.522.7c-.071.443.315,1.026,1.115,1.684a.346.346,0,0,1-.22.613Z" transform="translate(-678.688 -46.276)"/>
        </g>
        <g id="Group_3869" data-name="Group 3869" class="cls-7" transform="translate(701.741 49.708)">
          <path id="Path_299" data-name="Path 299" class="cls-8" d="M722.452,59.662c.275,1.237,1.015,4.561-.936,7.247-2.682,3.694-8.169,3.039-8.9,2.94-4.071-.548-10.082-3.748-10.187-9.838a10.014,10.014,0,0,1,9.838-10.187C718.537,49.715,721.674,56.171,722.452,59.662Z" transform="translate(-702.424 -49.824)"/>
        </g>
      </g>
    </g>
  </g>
</svg>