<svg version="1.1" id="Layer_1" xmlns="http://www.w3.org/2000/svg" xmlns:xlink="http://www.w3.org/1999/xlink" x="0px" y="0px" width="300px" height="300px" viewBox="-10 -10 120 120" enable-background="new -10 -10 120 120" xml:space="preserve">
<g>
	<rect x="22.292" y="31.92" fill="none" stroke-width="2" stroke-miterlimit="10" width="49.386" height="74.08" stroke="#000"/>
	
		<rect x="27.99" y="22.423" stroke-width="2" stroke-miterlimit="10" width="37.989" height="9.498" fill="#fff" stroke="#000"/>
	
		<rect x="43.186" y="90.805" fill="#fff" stroke-width="2" stroke-miterlimit="10" width="11.395" height="15.195" stroke="#000"/>
	<polyline fill="none" stroke-width="2" stroke-miterlimit="10" points="31.789,58.514 31.789,49.016    41.287,49.016 41.287,58.514  " stroke="#000"/>
	<polyline fill="none" stroke-width="2" stroke-miterlimit="10" points="31.789,73.709 31.789,64.211    41.287,64.211 41.287,73.709  " stroke="#000"/>
	
		<rect x="3.297" y="58.514" fill="none" stroke-width="2" stroke-miterlimit="10" width="18.995" height="47.486" stroke="#000"/>
	
		<rect x="8.995" y="49.016" fill="#fff" stroke-width="2" stroke-miterlimit="10" width="13.297" height="9.498" stroke="#000"/>
	<path stroke-width="2" stroke-miterlimit="10" d="M71.818,45.217   c-11.463,0-20.757,9.293-20.757,20.756c0,17.912,17.7,20.334,19.188,38.546c0.065,0.828,0.735,1.481,1.568,1.481   c0.831,0,1.5-0.653,1.564-1.481c1.489-18.212,19.19-20.634,19.19-38.546C92.573,54.51,83.278,45.217,71.818,45.217z" fill="#fff" stroke="#000"/>
	<circle fill="var(--white)" stroke-width="2" stroke-miterlimit="10" cx="71.678" cy="66.112" r="7.598" stroke="#000"/>
	<line fill="none" stroke-width="2" stroke-miterlimit="10" x1="-2.402" y1="106" x2="92.573" y2="106" stroke="#000"/>
	<line fill="none" stroke-width="2" stroke-miterlimit="10" x1="-6.201" y1="106" x2="-10" y2="106" stroke="#000"/>
	<line fill="none" stroke-width="2" stroke-miterlimit="10" x1="96.37" y1="106" x2="103.969" y2="106" stroke="#000"/>
	<line fill="none" stroke-width="2" stroke-miterlimit="10" x1="107.768" y1="106" x2="111.566" y2="106" stroke="#000"/>
</g>
</svg>