<!DOCTYPE svg PUBLIC "-//W3C//DTD SVG 1.1//EN" "http://www.w3.org/Graphics/SVG/1.1/DTD/svg11.dtd">
<!-- Uploaded to: SVG Repo, www.svgrepo.com, Transformed by: SVG Repo Mixer Tools -->
<svg fill="#000000" width="800px" height="800px" viewBox="0 0 24 24" id="medical-receipt-left-2" data-name="Line Color" xmlns="http://www.w3.org/2000/svg" class="icon line-color">

<g id="SVGRepo_bgCarrier" stroke-width="0"/>

<g id="SVGRepo_tracerCarrier" stroke-linecap="round" stroke-linejoin="round"/>

<g id="SVGRepo_iconCarrier">

<path id="secondary" d="M14,8v4m2-2H12m-.73,6.73a2.52,2.52,0,0,1,0,3.54h0a2.52,2.52,0,0,1-3.54,0l-4-4a2.52,2.52,0,0,1,0-3.54h0a2.52,2.52,0,0,1,3.54,0ZM9.12,14.88,5.88,18.12" style="fill: none; stroke: #2ca9bc; stroke-linecap: round; stroke-linejoin: round; stroke-width: 2;"/>

<path id="primary" d="M7,8V4A1,1,0,0,1,8,3H20a1,1,0,0,1,1,1V20a1,1,0,0,1-1,1H16" style="fill: none; stroke: #09459e; stroke-linecap: round; stroke-linejoin: round; stroke-width: 2;"/>

</g>

</svg>